<?xml version="1.0" encoding="UTF-8"?>
<svg id="katman_2" data-name="katman 2" xmlns="http://www.w3.org/2000/svg" viewBox="0 0 120.45 32.16">
  <defs>
    <style>
      .cls-1 {
        stroke: #e1e046;
        stroke-width: 1.01px;
      }

      .cls-1, .cls-2, .cls-3 {
        fill: none;
        stroke-miterlimit: 10;
      }

      .cls-4 {
        fill: #4f4495;
        stroke-width: 0px;
      }

      .cls-2 {
        stroke: #c4d439;
        stroke-width: 3.04px;
      }

      .cls-3 {
        stroke: #4f4495;
        stroke-width: 4.05px;
      }
    </style>
  </defs>
  <g id="katman_1" data-name="katman 1">
    <g>
      <g>
        <path class="cls-4" d="M25.62,6.15L7.17,26.07h18.45v5.04H0v-5.04L18.45,6.15H0V1.11h25.62v5.04Z"/>
        <path class="cls-4" d="M86.94,12.45v18.66h-5.04V13.56c0-1.52-.37-2.9-1.11-4.14-.74-1.24-1.73-2.22-2.97-2.96-1.24-.73-2.62-1.1-4.14-1.1s-2.88.37-4.12,1.1c-1.25.73-2.25,1.72-2.98,2.96-.74,1.24-1.11,2.62-1.11,4.14v17.55h-5.04V1.11h5.04v3.75c1.06-1.4,2.4-2.51,4.02-3.35,1.62-.83,3.38-1.24,5.28-1.24,2.24,0,4.28.54,6.14,1.63,1.85,1.09,3.32,2.56,4.41,4.4,1.09,1.84,1.64,3.89,1.64,6.15Z"/>
        <path class="cls-4" d="M105.54,31.89c-2.76,0-5.27-.71-7.54-2.13s-4.08-3.32-5.43-5.71c-1.35-2.39-2.03-5.03-2.03-7.94,0-2.2.39-4.25,1.17-6.17.78-1.91,1.85-3.59,3.22-5.04,1.37-1.45,2.96-2.58,4.79-3.4,1.82-.82,3.76-1.23,5.82-1.23,2.26,0,4.33.46,6.23,1.36,1.89.91,3.51,2.18,4.86,3.79,1.35,1.62,2.36,3.5,3.03,5.64.67,2.14.92,4.43.73,6.87h-24.48c.24,1.7.8,3.21,1.68,4.54.88,1.33,2,2.38,3.38,3.17,1.37.78,2.9,1.18,4.57,1.2,1.8,0,3.43-.47,4.89-1.4,1.46-.93,2.64-2.21,3.54-3.83l5.13,1.2c-1.2,2.66-3.01,4.83-5.43,6.52-2.42,1.69-5.13,2.53-8.13,2.53ZM95.76,13.98h19.56c-.16-1.68-.7-3.21-1.62-4.6s-2.09-2.51-3.51-3.35c-1.42-.84-2.97-1.26-4.65-1.26s-3.22.41-4.62,1.23c-1.4.82-2.56,1.92-3.47,3.31s-1.48,2.95-1.69,4.67Z"/>
      </g>
      <g>
        <circle class="cls-3" cx="42.53" cy="16.08" r="14.05"/>
        <circle class="cls-2" cx="42.53" cy="16.08" r="8.44"/>
        <circle class="cls-1" cx="42.53" cy="16.08" r="4.5"/>
      </g>
    </g>
  </g>
</svg>