<?xml version="1.0" encoding="UTF-8"?>
<svg id="katman_2" data-name="katman 2" xmlns="http://www.w3.org/2000/svg" viewBox="0 0 253.79 303.8">
  <defs>
    <style>
      .cls-1 {
        fill: none;
        stroke: #283069;
        stroke-miterlimit: 10;
        stroke-width: 24px;
      }
    </style>
  </defs>
  <g id="katman_1" data-name="katman 1">
    <g>
      <path class="cls-1" d="M171.85,49.17c.06,23.16-18.09,42.9-41.11,44.79-25.72,2.4-48.58-18.03-49-43.84-.89-25.32,20.86-47.09,46.3-46.08,23.88.33,44.07,21,43.81,44.94v.2Z"/>
      <path class="cls-1" d="M4.62,263.23c37.24-2.47,83.23,10.1,113.88,31.53,2.29,1.51,4.43,3.06,6.4,4.41,1.27.91,2.83.79,4.04-.16,24.69-18.3,58.92-31.64,89.25-34.71,10.26-1.23,20.86-1.43,30.78-1.08,1.81-4.21,0-79.95.62-122.29-.04-15,.07-25.34-.04-27.62.02-.29-1.76-.35-2.5-.37-6.72-.24-14.3-.16-21.54.41-34.19,2.43-68.87,15.24-96.33,35.25-1.52,1.18-2.99,1.27-4.41.24-2.78-1.96-5.89-4.15-9.31-6.32-29.49-19.87-74.51-31.79-109.06-29.58-.63.02-1.17.05-1.55.09-.53.05-.76.14-.82.3-.06,4.38,0,79.96-.03,122.07,0,14.86,0,25.56,0,27.48.02.29.17.29.55.33h.07Z"/>
    </g>
  </g>
</svg>